<svg width="79" height="39" viewBox="0 0 79 39" fill="none" xmlns="http://www.w3.org/2000/svg">
<path fill-rule="evenodd" clip-rule="evenodd" d="M0 0V15.8515C0.0458798 18.199 1.51862 22.894 7.04254 22.894H24.6374C26.2432 22.894 28.629 24.3071 28.629 27.1149C28.629 29.9228 26.1056 31.6111 24.6374 31.6111H10.9653V35.488C10.9653 36.9561 11.6993 38.6996 14.1768 38.6996H25.3027C28.7437 38.5849 35.6256 35.9284 35.6256 26.2203C35.6256 22.894 32.3452 15.8515 24.2704 15.8515C24.5457 15.2627 25.0962 14.0163 25.0962 10.9882C25.0962 6.92784 23.261 0 14.3833 0H0ZM0 31.6111H6.26259C7.63898 31.6111 8.76303 32.515 8.76303 34.1116V38.6996H2.40869C0.894655 38.6996 0 38.1261 0 36.2909V31.6111ZM11.9288 6.88208C9.44558 6.88208 7.43256 8.89511 7.43256 11.3783C7.43256 13.8615 9.44558 15.8745 11.9288 15.8745H14.1769C16.6601 15.8745 18.6731 13.8615 18.6731 11.3783C18.6731 8.89511 16.6601 6.88208 14.1769 6.88208H11.9288Z" fill="url(#paint0_linear_2_29)"/>
<path d="M8.8548 15.8743H24.2704C36.2358 16.3882 36.5203 25.6926 35.1668 30.2806C35.9927 25.0686 28.8278 23.1998 25.1421 22.9169H7.06549C1.59662 22.9169 0.0917688 18.2218 0.0229492 15.8743V7.04248C0.0229492 14.1447 5.91085 15.8896 8.8548 15.8743Z" fill="url(#paint1_linear_2_29)"/>
<path d="M34.7969 6.29759C35.1556 5.80279 35.6442 5.40076 36.2627 5.0915C36.8936 4.76988 37.5925 4.60907 38.3595 4.60907C39.2625 4.60907 40.0789 4.82555 40.8088 5.2585C41.5386 5.69146 42.1138 6.30996 42.5344 7.11402C42.955 7.90571 43.1653 8.81492 43.1653 9.84164C43.1653 10.8684 42.955 11.7899 42.5344 12.6064C42.1138 13.4104 41.5324 14.0413 40.7902 14.499C40.0604 14.9443 39.2501 15.167 38.3595 15.167C37.5678 15.167 36.8627 15.0124 36.2442 14.7031C35.638 14.3939 35.1556 13.998 34.7969 13.5156V15H32.6816V1.26913H34.7969V6.29759ZM41.0129 9.84164C41.0129 9.13655 40.8644 8.53041 40.5675 8.02323C40.283 7.50368 39.8995 7.11402 39.4171 6.85425C38.947 6.58211 38.4399 6.44604 37.8956 6.44604C37.3637 6.44604 36.8565 6.58211 36.3741 6.85425C35.904 7.12639 35.5205 7.52224 35.2236 8.04179C34.9391 8.56133 34.7969 9.17366 34.7969 9.87875C34.7969 10.5839 34.9391 11.2024 35.2236 11.7343C35.5205 12.2538 35.904 12.6497 36.3741 12.9218C36.8565 13.194 37.3637 13.33 37.8956 13.33C38.4399 13.33 38.947 13.194 39.4171 12.9218C39.8995 12.6373 40.283 12.2291 40.5675 11.6972C40.8644 11.1653 41.0129 10.5467 41.0129 9.84164ZM43.2531 9.84164C43.2531 8.81492 43.4634 7.90571 43.884 7.11402C44.3169 6.32233 44.8983 5.71001 45.6282 5.27706C46.3704 4.83173 47.1868 4.60907 48.0775 4.60907C48.8815 4.60907 49.5805 4.76988 50.1742 5.0915C50.7804 5.40076 51.2628 5.79042 51.6215 6.26048V4.77607H53.7554V15H51.6215V13.4785C51.2628 13.9609 50.7742 14.3629 50.1557 14.6846C49.5372 15.0062 48.8321 15.167 48.0404 15.167C47.1621 15.167 46.358 14.9443 45.6282 14.499C44.8983 14.0413 44.3169 13.4104 43.884 12.6064C43.4634 11.7899 43.2531 10.8684 43.2531 9.84164ZM51.6215 9.87875C51.6215 9.17366 51.4731 8.56133 51.1762 8.04179C50.8917 7.52224 50.5144 7.12639 50.0443 6.85425C49.5743 6.58211 49.0671 6.44604 48.5228 6.44604C47.9785 6.44604 47.4713 6.58211 47.0013 6.85425C46.5312 7.11402 46.1477 7.50368 45.8508 8.02323C45.5663 8.53041 45.4241 9.13655 45.4241 9.84164C45.4241 10.5467 45.5663 11.1653 45.8508 11.6972C46.1477 12.2291 46.5312 12.6373 47.0013 12.9218C47.4837 13.194 47.9909 13.33 48.5228 13.33C49.0671 13.33 49.5743 13.194 50.0443 12.9218C50.5144 12.6497 50.8917 12.2538 51.1762 11.7343C51.4731 11.2024 51.6215 10.5839 51.6215 9.87875ZM57.3502 1.26913V15H55.2349V1.26913H57.3502ZM61.2963 6.5017V12.161C61.2963 12.5445 61.3829 12.8229 61.5561 12.996C61.7417 13.1568 62.0509 13.2373 62.4839 13.2373H63.7827V15H62.1128C61.1603 15 60.4304 14.7773 59.9233 14.332C59.4161 13.8867 59.1625 13.163 59.1625 12.161V6.5017H57.9564V4.77607H59.1625V2.234H61.2963V4.77607H63.7827V6.5017H61.2963ZM65.5097 3.42153C65.1262 3.42153 64.8046 3.29165 64.5448 3.03187C64.285 2.7721 64.1552 2.45048 64.1552 2.067C64.1552 1.68353 64.285 1.3619 64.5448 1.10213C64.8046 0.842355 65.1262 0.712468 65.5097 0.712468C65.8808 0.712468 66.1962 0.842355 66.456 1.10213C66.7158 1.3619 66.8457 1.68353 66.8457 2.067C66.8457 2.45048 66.7158 2.7721 66.456 3.03187C66.1962 3.29165 65.8808 3.42153 65.5097 3.42153ZM66.5488 4.77607V15H64.4335V4.77607H66.5488ZM67.322 9.87875C67.322 8.82729 67.5323 7.90571 67.9529 7.11402C68.3858 6.30996 68.9796 5.69146 69.7342 5.2585C70.4888 4.82555 71.3547 4.60907 72.3319 4.60907C73.5689 4.60907 74.5895 4.90595 75.3935 5.49972C76.21 6.08112 76.7604 6.9161 77.045 8.00468H74.7627C74.5771 7.4975 74.2802 7.10165 73.872 6.81714C73.4638 6.53263 72.9504 6.39037 72.3319 6.39037C71.466 6.39037 70.7733 6.69962 70.2537 7.31813C69.7466 7.92427 69.493 8.77781 69.493 9.87875C69.493 10.9797 69.7466 11.8394 70.2537 12.4579C70.7733 13.0764 71.466 13.3857 72.3319 13.3857C73.5566 13.3857 74.3668 12.8476 74.7627 11.7714H77.045C76.7481 12.8105 76.1914 13.6393 75.375 14.2578C74.5585 14.8639 73.5442 15.167 72.3319 15.167C71.3547 15.167 70.4888 14.9505 69.7342 14.5176C68.9796 14.0722 68.3858 13.4537 67.9529 12.662C67.5323 11.858 67.322 10.9302 67.322 9.87875ZM41.8391 24.279C42.1979 23.809 42.6865 23.4131 43.305 23.0915C43.9235 22.7699 44.6224 22.6091 45.4018 22.6091C46.2924 22.6091 47.1026 22.8317 47.8325 23.2771C48.5747 23.71 49.1561 24.3223 49.5767 25.114C49.9973 25.9057 50.2076 26.8149 50.2076 27.8416C50.2076 28.8684 49.9973 29.7899 49.5767 30.6064C49.1561 31.4104 48.5747 32.0413 47.8325 32.499C47.1026 32.9443 46.2924 33.167 45.4018 33.167C44.6224 33.167 43.9297 33.0124 43.3236 32.7031C42.7174 32.3815 42.2226 31.9856 41.8391 31.5156V37.8615H39.7239V22.7761H41.8391V24.279ZM48.0552 27.8416C48.0552 27.1365 47.9067 26.5304 47.6098 26.0232C47.3253 25.5037 46.9418 25.114 46.4594 24.8543C45.9893 24.5821 45.4822 24.446 44.9379 24.446C44.406 24.446 43.8988 24.5821 43.4163 24.8543C42.9463 25.1264 42.5628 25.5222 42.2659 26.0418C41.9814 26.5613 41.8391 27.1737 41.8391 27.8788C41.8391 28.5839 41.9814 29.2024 42.2659 29.7343C42.5628 30.2538 42.9463 30.6497 43.4163 30.9218C43.8988 31.194 44.406 31.33 44.9379 31.33C45.4822 31.33 45.9893 31.194 46.4594 30.9218C46.9418 30.6373 47.3253 30.2291 47.6098 29.6972C47.9067 29.1653 48.0552 28.5467 48.0552 27.8416ZM52.0767 21.4215C51.6932 21.4215 51.3716 21.2916 51.1118 21.0319C50.8521 20.7721 50.7222 20.4505 50.7222 20.067C50.7222 19.6835 50.8521 19.3619 51.1118 19.1021C51.3716 18.8424 51.6932 18.7125 52.0767 18.7125C52.4478 18.7125 52.7633 18.8424 53.023 19.1021C53.2828 19.3619 53.4127 19.6835 53.4127 20.067C53.4127 20.4505 53.2828 20.7721 53.023 21.0319C52.7633 21.2916 52.4478 21.4215 52.0767 21.4215ZM53.1158 22.7761V33H51.0005V22.7761H53.1158ZM56.7094 24.279C57.0682 23.809 57.5568 23.4131 58.1753 23.0915C58.7938 22.7699 59.4927 22.6091 60.272 22.6091C61.1627 22.6091 61.9729 22.8317 62.7028 23.2771C63.445 23.71 64.0264 24.3223 64.447 25.114C64.8675 25.9057 65.0778 26.8149 65.0778 27.8416C65.0778 28.8684 64.8675 29.7899 64.447 30.6064C64.0264 31.4104 63.445 32.0413 62.7028 32.499C61.9729 32.9443 61.1627 33.167 60.272 33.167C59.4927 33.167 58.8 33.0124 58.1938 32.7031C57.5877 32.3815 57.0929 31.9856 56.7094 31.5156V37.8615H54.5941V22.7761H56.7094V24.279ZM62.9254 27.8416C62.9254 27.1365 62.777 26.5304 62.4801 26.0232C62.1956 25.5037 61.8121 25.114 61.3297 24.8543C60.8596 24.5821 60.3524 24.446 59.8082 24.446C59.2762 24.446 58.7691 24.5821 58.2866 24.8543C57.8166 25.1264 57.4331 25.5222 57.1362 26.0418C56.8517 26.5613 56.7094 27.1737 56.7094 27.8788C56.7094 28.5839 56.8517 29.2024 57.1362 29.7343C57.4331 30.2538 57.8166 30.6497 58.2866 30.9218C58.7691 31.194 59.2762 31.33 59.8082 31.33C60.3524 31.33 60.8596 31.194 61.3297 30.9218C61.8121 30.6373 62.1956 30.2291 62.4801 29.6972C62.777 29.1653 62.9254 28.5467 62.9254 27.8416ZM75.2412 27.6375C75.2412 28.021 75.2164 28.3674 75.167 28.6766H67.3552C67.4171 29.4931 67.7201 30.1487 68.2644 30.6435C68.8087 31.1383 69.4767 31.3857 70.2684 31.3857C71.4064 31.3857 72.2105 30.9094 72.6806 29.9569H74.9629C74.6536 30.8971 74.0908 31.6702 73.2743 32.2763C72.4703 32.8701 71.4683 33.167 70.2684 33.167C69.2911 33.167 68.4129 32.9505 67.6335 32.5176C66.8666 32.0722 66.2604 31.4537 65.8151 30.662C65.3822 29.858 65.1657 28.9302 65.1657 27.8788C65.1657 26.8273 65.376 25.9057 65.7966 25.114C66.2295 24.31 66.8295 23.6915 67.5964 23.2585C68.3757 22.8255 69.2664 22.6091 70.2684 22.6091C71.2333 22.6091 72.093 22.8194 72.8476 23.2399C73.6021 23.6605 74.1897 24.2543 74.6103 25.0212C75.0309 25.7758 75.2412 26.6479 75.2412 27.6375ZM73.0331 26.9695C73.0207 26.1902 72.7424 25.5655 72.1981 25.0955C71.6538 24.6254 70.9797 24.3904 70.1756 24.3904C69.4458 24.3904 68.8211 24.6254 68.3015 25.0955C67.782 25.5532 67.4727 26.1779 67.3738 26.9695H73.0331Z" fill="#353535"/>
<defs>
<linearGradient id="paint0_linear_2_29" x1="2.59221" y1="37.759" x2="26.4726" y2="10.4606" gradientUnits="userSpaceOnUse">
<stop stop-color="#3C0000"/>
<stop offset="1" stop-color="#D83C3C"/>
</linearGradient>
<linearGradient id="paint1_linear_2_29" x1="-2.40868" y1="7.70774" x2="35.7403" y2="31.3358" gradientUnits="userSpaceOnUse">
<stop stop-color="#D83C3C"/>
<stop offset="1" stop-color="#3C0000"/>
</linearGradient>
</defs>
</svg>
